<?xml version="1.0" encoding="UTF-8"?>
<svg width="100px" height="100px" viewBox="0 0 100 100" version="1.1" xmlns="http://www.w3.org/2000/svg" xmlns:xlink="http://www.w3.org/1999/xlink">
    <title>Purdue Logo</title>
    <g stroke="none" stroke-width="1" fill="none" fill-rule="evenodd">
        <g>
            <circle fill="#000000" cx="50" cy="50" r="50"></circle>
            <path d="M25,30 L25,70 L35,70 C45,70 50,65 50,50 C50,35 45,30 35,30 L25,30 Z M32,38 L35,38 C40,38 42,40 42,50 C42,60 40,62 35,62 L32,62 L32,38 Z" fill="#B1810B"></path>
            <path d="M55,30 L55,70 L75,70 L75,62 L63,62 L63,54 L73,54 L73,46 L63,46 L63,38 L75,38 L75,30 L55,30 Z" fill="#B1810B"></path>
        </g>
    </g>
</svg>